<svg width="20" height="20" viewBox="0 0 20 20" fill="none" xmlns="http://www.w3.org/2000/svg">
<path opacity="0.12" d="M8.54162 4.5835H5.66663C4.26649 4.5835 3.56643 4.5835 3.03165 4.85599C2.56124 5.09567 2.17879 5.47812 1.93911 5.94853C1.66662 6.48331 1.66663 7.18337 1.66663 8.58351L1.66663 9.5835C1.66663 10.3601 1.66663 10.7484 1.7935 11.0546C1.96265 11.463 2.28711 11.7875 2.69549 11.9566C3.00177 12.0835 3.39006 12.0835 4.16663 12.0835V15.6252C4.16663 15.8186 4.16663 15.9154 4.17465 15.9969C4.25259 16.7882 4.87864 17.4142 5.66993 17.4921C5.75142 17.5002 5.84815 17.5002 6.04163 17.5002C6.2351 17.5002 6.33184 17.5002 6.41332 17.4921C7.20462 17.4142 7.83067 16.7882 7.9086 15.9969C7.91663 15.9154 7.91663 15.8186 7.91663 15.6252V12.0835H8.54163C10.0137 12.0835 11.8143 12.8726 13.2035 13.6299C14.014 14.0717 14.4192 14.2926 14.6846 14.2601C14.9307 14.2299 15.1168 14.1194 15.2611 13.9178C15.4166 13.7003 15.4166 13.2652 15.4166 12.3949V4.27207C15.4166 3.40183 15.4166 2.96671 15.2611 2.74924C15.1168 2.54759 14.9307 2.43709 14.6846 2.40694C14.4192 2.37444 14.014 2.59534 13.2035 3.03713C11.8143 3.79443 10.0136 4.5835 8.54162 4.5835Z" fill="black"/>
<path d="M18.3333 6.66684V10.0002M8.54162 4.5835H5.66663C4.26649 4.5835 3.56643 4.5835 3.03165 4.85599C2.56124 5.09567 2.17879 5.47812 1.93911 5.94853C1.66662 6.48331 1.66663 7.18337 1.66663 8.58351L1.66663 9.5835C1.66663 10.3601 1.66663 10.7484 1.7935 11.0546C1.96265 11.463 2.28711 11.7875 2.69549 11.9566C3.00177 12.0835 3.39006 12.0835 4.16663 12.0835V15.6252C4.16663 15.8186 4.16663 15.9154 4.17465 15.9969C4.25259 16.7882 4.87864 17.4142 5.66993 17.4921C5.75142 17.5002 5.84815 17.5002 6.04163 17.5002C6.2351 17.5002 6.33184 17.5002 6.41332 17.4921C7.20462 17.4142 7.83067 16.7882 7.9086 15.9969C7.91663 15.9154 7.91663 15.8186 7.91663 15.6252V12.0835H8.54163C10.0137 12.0835 11.8143 12.8726 13.2035 13.6299C14.014 14.0717 14.4192 14.2926 14.6846 14.2601C14.9307 14.2299 15.1168 14.1194 15.2611 13.9178C15.4166 13.7003 15.4166 13.2652 15.4166 12.3949V4.27207C15.4166 3.40183 15.4166 2.96671 15.2611 2.74924C15.1168 2.54759 14.9307 2.43709 14.6846 2.40694C14.4192 2.37444 14.014 2.59534 13.2035 3.03713C11.8143 3.79443 10.0136 4.5835 8.54162 4.5835Z" stroke="black" stroke-width="2" stroke-linecap="round" stroke-linejoin="round"/>
</svg>
