<svg width="20" height="20" viewBox="0 0 20 20" fill="none" xmlns="http://www.w3.org/2000/svg">
<path opacity="0.12" d="M6.55713 12.8832L5.83325 18.3333L9.65692 16.0391C9.78163 15.9642 9.84398 15.9268 9.91055 15.9122C9.96943 15.8993 10.0304 15.8993 10.0893 15.9122C10.1559 15.9268 10.2182 15.9642 10.3429 16.0391L14.1666 18.3333L13.4432 12.8809L13.2355 13.3822C13.1066 13.6935 12.8593 13.9409 12.548 14.0698C12.2367 14.1987 11.887 14.1987 11.5757 14.0698L10.4857 13.6183C10.1744 13.4897 9.82481 13.4899 9.51372 13.619L8.42298 14.0702C8.11187 14.1988 7.76242 14.1987 7.4514 14.0699C7.14037 13.9411 6.8932 13.694 6.76418 13.3831L6.55713 12.8832Z" fill="black"/>
<path d="M6.55722 12.8831L5.83333 18.3332L9.657 16.039C9.78171 15.9641 9.84407 15.9267 9.91063 15.9121C9.96951 15.8992 10.0305 15.8992 10.0894 15.9121C10.1559 15.9267 10.2183 15.9641 10.343 16.039L14.1667 18.3332L13.4433 12.8808M13.6882 3.54057C13.8169 3.85184 14.064 4.09925 14.375 4.22842L15.4658 4.68024C15.7771 4.80918 16.0244 5.0565 16.1533 5.36779C16.2822 5.67908 16.2822 6.02884 16.1533 6.34013L15.7018 7.43013C15.5728 7.74156 15.5727 8.09168 15.7022 8.40295L16.1529 9.49263C16.2168 9.6468 16.2498 9.81207 16.2498 9.97897C16.2498 10.1459 16.2169 10.3111 16.1531 10.4653C16.0892 10.6195 15.9956 10.7596 15.8776 10.8776C15.7595 10.9956 15.6194 11.0892 15.4652 11.1531L14.3752 11.6045C14.064 11.7332 13.8166 11.9803 13.6874 12.2914L13.2356 13.3821C13.1067 13.6934 12.8593 13.9408 12.5481 14.0697C12.2368 14.1986 11.887 14.1986 11.5758 14.0697L10.4858 13.6182C10.1745 13.4896 9.82489 13.4898 9.5138 13.6189L8.42306 14.0701C8.11195 14.1987 7.76251 14.1986 7.45148 14.0698C7.14045 13.941 6.89328 13.6939 6.76426 13.383L6.31232 12.2919C6.18363 11.9806 5.93659 11.7332 5.62553 11.604L4.53479 11.1522C4.22365 11.0233 3.97641 10.7762 3.84743 10.465C3.71844 10.1539 3.71827 9.80433 3.84694 9.49309L4.29841 8.4031C4.42703 8.0918 4.42677 7.74216 4.29768 7.43106L3.84686 6.33949C3.78294 6.18532 3.75003 6.02005 3.75 5.85315C3.74997 5.68625 3.78283 5.52097 3.8467 5.36677C3.91057 5.21258 4.0042 5.07247 4.12223 4.95447C4.24026 4.83647 4.38039 4.74289 4.5346 4.67907L5.62456 4.22758C5.93554 4.09899 6.1828 3.85225 6.31206 3.54154L6.76386 2.45076C6.8928 2.13947 7.14011 1.89215 7.45139 1.76321C7.76267 1.63427 8.11242 1.63427 8.4237 1.76321L9.51365 2.2147C9.82494 2.34332 10.1746 2.34306 10.4857 2.21397L11.5769 1.76391C11.8881 1.63504 12.2378 1.63507 12.549 1.76398C12.8602 1.8929 13.1075 2.14015 13.2364 2.45136L13.6884 3.54246L13.6882 3.54057Z" stroke="black" stroke-width="2" stroke-linecap="round" stroke-linejoin="round"/>
</svg>
