<svg width="20" height="20" viewBox="0 0 20 20" fill="none" xmlns="http://www.w3.org/2000/svg">
<g clip-path="url(#clip0_1_1062)">
<g opacity="0.12">
<path d="M2.49996 4.1665C2.49996 3.38993 2.49996 3.00165 2.62683 2.69536C2.79598 2.28698 3.12044 1.96253 3.52882 1.79337C3.83511 1.6665 4.22339 1.6665 4.99996 1.6665H15C15.7765 1.6665 16.1648 1.6665 16.4711 1.79337C16.8795 1.96253 17.2039 2.28698 17.3731 2.69536C17.5 3.00165 17.5 3.38993 17.5 4.1665C17.5 4.94307 17.5 5.33136 17.3731 5.63764C17.2039 6.04602 16.8795 6.37048 16.4711 6.53964C16.1648 6.6665 15.7765 6.6665 15 6.6665H4.99996C4.22339 6.6665 3.83511 6.6665 3.52882 6.53964C3.12044 6.37048 2.79598 6.04602 2.62683 5.63764C2.49996 5.33136 2.49996 4.94307 2.49996 4.1665Z" fill="black"/>
<path d="M3.33329 18.3332C4.25377 18.3332 4.99996 17.587 4.99996 16.6665C4.99996 15.746 4.25377 14.9998 3.33329 14.9998C2.41282 14.9998 1.66663 15.746 1.66663 16.6665C1.66663 17.587 2.41282 18.3332 3.33329 18.3332Z" fill="black"/>
<path d="M16.6666 18.3332C17.5871 18.3332 18.3333 17.587 18.3333 16.6665C18.3333 15.746 17.5871 14.9998 16.6666 14.9998C15.7462 14.9998 15 15.746 15 16.6665C15 17.587 15.7462 18.3332 16.6666 18.3332Z" fill="black"/>
<path d="M9.99996 18.3332C10.9204 18.3332 11.6666 17.587 11.6666 16.6665C11.6666 15.746 10.9204 14.9998 9.99996 14.9998C9.07948 14.9998 8.33329 15.746 8.33329 16.6665C8.33329 17.587 9.07948 18.3332 9.99996 18.3332Z" fill="black"/>
</g>
<path d="M3.33329 14.9998V14.8332C3.33329 13.433 3.33329 12.733 3.60578 12.1982C3.84546 11.7278 4.22791 11.3453 4.69832 11.1057C5.2331 10.8332 5.93316 10.8332 7.33329 10.8332H12.6666C14.0668 10.8332 14.7668 10.8332 15.3016 11.1057C15.772 11.3453 16.1545 11.7278 16.3941 12.1982C16.6666 12.733 16.6666 13.433 16.6666 14.8332V14.9998M3.33329 14.9998C2.41282 14.9998 1.66663 15.746 1.66663 16.6665C1.66663 17.587 2.41282 18.3332 3.33329 18.3332C4.25377 18.3332 4.99996 17.587 4.99996 16.6665C4.99996 15.746 4.25377 14.9998 3.33329 14.9998ZM16.6666 14.9998C15.7462 14.9998 15 15.746 15 16.6665C15 17.587 15.7462 18.3332 16.6666 18.3332C17.5871 18.3332 18.3333 17.587 18.3333 16.6665C18.3333 15.746 17.5871 14.9998 16.6666 14.9998ZM9.99996 14.9998C9.07948 14.9998 8.33329 15.746 8.33329 16.6665C8.33329 17.587 9.07948 18.3332 9.99996 18.3332C10.9204 18.3332 11.6666 17.587 11.6666 16.6665C11.6666 15.746 10.9204 14.9998 9.99996 14.9998ZM9.99996 14.9998V6.6665M4.99996 6.6665H15C15.7765 6.6665 16.1648 6.6665 16.4711 6.53964C16.8795 6.37048 17.2039 6.04602 17.3731 5.63764C17.5 5.33136 17.5 4.94307 17.5 4.1665C17.5 3.38993 17.5 3.00165 17.3731 2.69536C17.2039 2.28698 16.8795 1.96253 16.4711 1.79337C16.1648 1.6665 15.7765 1.6665 15 1.6665H4.99996C4.22339 1.6665 3.83511 1.6665 3.52882 1.79337C3.12044 1.96253 2.79598 2.28698 2.62683 2.69536C2.49996 3.00165 2.49996 3.38993 2.49996 4.1665C2.49996 4.94307 2.49996 5.33136 2.62683 5.63764C2.79598 6.04602 3.12044 6.37048 3.52882 6.53964C3.83511 6.6665 4.22339 6.6665 4.99996 6.6665Z" stroke="black" stroke-width="2" stroke-linecap="round" stroke-linejoin="round"/>
</g>
<defs>
<clipPath id="clip0_1_1062">
<rect width="20" height="20" fill="white"/>
</clipPath>
</defs>
</svg>
