<svg width="20" height="20" viewBox="0 0 20 20" fill="none" xmlns="http://www.w3.org/2000/svg">
<path opacity="0.12" d="M12.5278 3.3335H7.4721C6.5747 3.3335 6.126 3.3335 5.72987 3.47013C5.37955 3.59096 5.06048 3.78816 4.79575 4.04745C4.49638 4.34066 4.29571 4.74199 3.89439 5.54464L1.66663 10.0002H4.9016C5.4726 10.0002 5.9946 10.3228 6.24996 10.8335C6.50532 11.3442 7.02732 11.6668 7.59832 11.6668H12.4016C12.9726 11.6668 13.4946 11.3442 13.75 10.8335C14.0053 10.3228 14.5273 10.0002 15.0983 10.0002H18.3333L16.1055 5.54464C15.7042 4.742 15.5035 4.34066 15.2042 4.04745C14.9394 3.78816 14.6204 3.59096 14.2701 3.47013C13.8739 3.3335 13.4252 3.3335 12.5278 3.3335Z" fill="black"/>
<path d="M2.08329 10.0002H4.9016C5.4726 10.0002 5.9946 10.3228 6.24996 10.8335C6.50532 11.3442 7.02732 11.6668 7.59832 11.6668H12.4016C12.9726 11.6668 13.4946 11.3442 13.75 10.8335C14.0053 10.3228 14.5273 10.0002 15.0983 10.0002H17.9166M7.4721 3.3335H12.5278C13.4252 3.3335 13.8739 3.3335 14.2701 3.47013C14.6204 3.59096 14.9394 3.78816 15.2042 4.04745C15.5035 4.34066 15.7042 4.742 16.1055 5.54464L17.911 9.15558C18.0685 9.47057 18.1472 9.62806 18.2028 9.79312C18.2521 9.9397 18.2877 10.0906 18.3091 10.2437C18.3333 10.4162 18.3333 10.5923 18.3333 10.9444V12.6668C18.3333 14.067 18.3333 14.767 18.0608 15.3018C17.8211 15.7722 17.4387 16.1547 16.9683 16.3943C16.4335 16.6668 15.7334 16.6668 14.3333 16.6668H5.66663C4.26649 16.6668 3.56643 16.6668 3.03165 16.3943C2.56124 16.1547 2.17879 15.7722 1.93911 15.3018C1.66663 14.767 1.66663 14.067 1.66663 12.6668V10.9444C1.66663 10.5923 1.66663 10.4162 1.69077 10.2437C1.71221 10.0906 1.74782 9.9397 1.79714 9.79312C1.85268 9.62806 1.93142 9.47057 2.08892 9.15558L3.89439 5.54464C4.29571 4.74199 4.49638 4.34066 4.79575 4.04745C5.06048 3.78816 5.37955 3.59096 5.72987 3.47013C6.126 3.3335 6.5747 3.3335 7.4721 3.3335Z" stroke="black" stroke-width="2" stroke-linecap="round" stroke-linejoin="round"/>
</svg>
