<svg width="20" height="20" viewBox="0 0 20 20" fill="none" xmlns="http://www.w3.org/2000/svg">
<path opacity="0.12" d="M2.60959 16.776C2.27958 16.446 2.11457 16.281 2.05275 16.0907C1.99837 15.9233 1.99837 15.743 2.05275 15.5757C2.11457 15.3854 2.27958 15.2204 2.60959 14.8904L8.33345 9.1665L10.8335 11.6665L5.10959 17.3904C4.77958 17.7204 4.61457 17.8854 4.4243 17.9472C4.25693 18.0016 4.07664 18.0016 3.90927 17.9472C3.719 17.8854 3.55399 17.7204 3.22398 17.3904L2.60959 16.776Z" fill="black"/>
<path d="M10.8335 11.6665L8.33345 9.1665M12.5087 2.9165V1.6665M15.7915 4.21705L16.6754 3.33317M15.7915 10.8332L16.6754 11.7171M9.17541 4.21705L8.29153 3.33317M17.0921 7.49984H18.3421M5.10959 17.3904L12.8073 9.69265C13.1373 9.36263 13.3023 9.19763 13.3642 9.00735C13.4185 8.83998 13.4185 8.65969 13.3642 8.49232C13.3023 8.30205 13.1373 8.13704 12.8073 7.80703L12.1929 7.19265C11.8629 6.86263 11.6979 6.69763 11.5076 6.6358C11.3403 6.58142 11.16 6.58142 10.9926 6.6358C10.8023 6.69763 10.6373 6.86263 10.3073 7.19265L2.60959 14.8904C2.27958 15.2204 2.11457 15.3854 2.05275 15.5757C1.99837 15.743 1.99837 15.9233 2.05275 16.0907C2.11457 16.281 2.27958 16.446 2.60959 16.776L3.22398 17.3904C3.55399 17.7204 3.719 17.8854 3.90927 17.9472C4.07664 18.0016 4.25693 18.0016 4.4243 17.9472C4.61457 17.8854 4.77958 17.7204 5.10959 17.3904Z" stroke="black" stroke-width="2" stroke-linecap="round" stroke-linejoin="round"/>
</svg>
