<svg width="20" height="20" viewBox="0 0 20 20" fill="none" xmlns="http://www.w3.org/2000/svg">
<path opacity="0.12" d="M16.7678 3.23223C17.7441 4.20854 17.7441 5.79146 16.7678 6.76777C15.7915 7.74408 14.2085 7.74408 13.2322 6.76777C12.2559 5.79146 12.2559 4.20854 13.2322 3.23223C14.2085 2.25592 15.7915 2.25592 16.7678 3.23223Z" fill="black"/>
<path d="M9.75612 2.53039C6.15379 2.86351 3.33331 5.89404 3.33331 9.58333C3.33331 10.375 3.46318 11.1363 3.70278 11.8472C3.79295 12.1147 3.83803 12.2484 3.84616 12.3512C3.85419 12.4527 3.84812 12.5238 3.82302 12.6225C3.79759 12.7224 3.74147 12.8262 3.62922 13.034L2.26617 15.557C2.07174 15.9168 1.97453 16.0968 1.99629 16.2356C2.01524 16.3566 2.08643 16.4631 2.19095 16.5269C2.31095 16.6001 2.51439 16.579 2.92126 16.537L7.18877 16.0958C7.31796 16.0825 7.38264 16.0758 7.44152 16.0781C7.49945 16.0803 7.54034 16.0857 7.59683 16.0987C7.65427 16.112 7.72649 16.1398 7.87093 16.1954C8.66098 16.4998 9.51932 16.6667 10.4166 16.6667C14.109 16.6667 17.1415 13.8415 17.4704 10.2349M16.7677 3.23223C17.744 4.20854 17.744 5.79146 16.7677 6.76777C15.7914 7.74408 14.2085 7.74408 13.2322 6.76777C12.2559 5.79146 12.2559 4.20854 13.2322 3.23223C14.2085 2.25592 15.7914 2.25592 16.7677 3.23223Z" stroke="black" stroke-width="2" stroke-linecap="round" stroke-linejoin="round"/>
</svg>
