<svg width="20" height="20" viewBox="0 0 20 20" fill="none" xmlns="http://www.w3.org/2000/svg">
<g clip-path="url(#clip0_1_1046)">
<g opacity="0.12">
<path d="M4.16675 6.6665C5.54746 6.6665 6.66675 5.54722 6.66675 4.1665C6.66675 2.78579 5.54746 1.6665 4.16675 1.6665C2.78604 1.6665 1.66675 2.78579 1.66675 4.1665C1.66675 5.54722 2.78604 6.6665 4.16675 6.6665Z" fill="black"/>
<path d="M15.8334 18.3332C17.2141 18.3332 18.3334 17.2139 18.3334 15.8332C18.3334 14.4525 17.2141 13.3332 15.8334 13.3332C14.4527 13.3332 13.3334 14.4525 13.3334 15.8332C13.3334 17.2139 14.4527 18.3332 15.8334 18.3332Z" fill="black"/>
</g>
<path d="M9.58341 4.1665H9.94541C12.4848 4.1665 13.7545 4.1665 14.2364 4.62258C14.6531 5.01681 14.8377 5.59757 14.7252 6.16001C14.5951 6.81068 13.5585 7.54388 11.4853 9.01028L8.09818 11.4061C6.025 12.8725 4.9884 13.6057 4.85828 14.2563C4.7458 14.8188 4.93043 15.3995 5.34705 15.7938C5.82903 16.2498 7.09871 16.2498 9.63808 16.2498H10.4167M6.66675 4.1665C6.66675 5.54722 5.54746 6.6665 4.16675 6.6665C2.78604 6.6665 1.66675 5.54722 1.66675 4.1665C1.66675 2.78579 2.78604 1.6665 4.16675 1.6665C5.54746 1.6665 6.66675 2.78579 6.66675 4.1665ZM18.3334 15.8332C18.3334 17.2139 17.2141 18.3332 15.8334 18.3332C14.4527 18.3332 13.3334 17.2139 13.3334 15.8332C13.3334 14.4525 14.4527 13.3332 15.8334 13.3332C17.2141 13.3332 18.3334 14.4525 18.3334 15.8332Z" stroke="black" stroke-width="2" stroke-linecap="round" stroke-linejoin="round"/>
</g>
<defs>
<clipPath id="clip0_1_1046">
<rect width="20" height="20" fill="white"/>
</clipPath>
</defs>
</svg>
