<svg width="15" height="15" viewBox="0 0 15 15" fill="none" xmlns="http://www.w3.org/2000/svg">
<path d="M10.1227 7.71289L13.9374 11.5657C14.4333 12.0235 14.4333 12.7864 13.9374 13.2442L13.0981 14.0834C12.6404 14.5793 11.8774 14.5793 11.4197 14.0834L7.60498 10.2687L3.75214 14.0834C3.29437 14.5793 2.53143 14.5793 2.07367 14.0834L1.23444 13.2442C0.738525 12.7864 0.738525 12.0235 1.23444 11.5657L5.04913 7.71289L1.23444 3.89819C0.738525 3.44043 0.738525 2.67749 1.23444 2.21973L2.07367 1.38049C2.53143 0.884583 3.29437 0.884583 3.75214 1.38049L7.60498 5.19519L11.4197 1.38049C11.8774 0.884583 12.6404 0.884583 13.0981 1.38049L13.9374 2.21973C14.4333 2.67749 14.4333 3.44043 13.9374 3.89819L10.1227 7.71289Z" fill="#F89E52"/>
</svg>
