<svg width="27" height="24" viewBox="0 0 27 24" fill="none" xmlns="http://www.w3.org/2000/svg">
<path d="M1.6875 4.48438C1.16016 4.48438 0.75 4.07422 0.75 3.54688V1.20312C0.75 0.734375 1.16016 0.265625 1.6875 0.265625H26.0625C26.5312 0.265625 27 0.734375 27 1.20312V3.54688C27 4.07422 26.5312 4.48438 26.0625 4.48438H1.6875ZM1.6875 13.8594C1.16016 13.8594 0.75 13.4492 0.75 12.9219V10.5781C0.75 10.1094 1.16016 9.64062 1.6875 9.64062H26.0625C26.5312 9.64062 27 10.1094 27 10.5781V12.9219C27 13.4492 26.5312 13.8594 26.0625 13.8594H1.6875ZM1.6875 23.2344C1.16016 23.2344 0.75 22.8242 0.75 22.2969V19.9531C0.75 19.4844 1.16016 19.0156 1.6875 19.0156H26.0625C26.5312 19.0156 27 19.4844 27 19.9531V22.2969C27 22.8242 26.5312 23.2344 26.0625 23.2344H1.6875Z" fill="#F89E52"/>
</svg>
