<svg width="20" height="20" viewBox="0 0 20 20" fill="none" xmlns="http://www.w3.org/2000/svg">
<path opacity="0.12" fill-rule="evenodd" clip-rule="evenodd" d="M9.99425 4.27985C8.32813 2.332 5.54975 1.80804 3.4622 3.59168C1.37466 5.37532 1.08077 8.35748 2.72012 10.467C3.95837 12.0604 7.47604 15.2591 9.1233 16.7291C9.42611 16.9993 9.57752 17.1344 9.75482 17.1876C9.90873 17.2338 10.0798 17.2338 10.2337 17.1876C10.411 17.1344 10.5624 16.9993 10.8652 16.7291C12.5125 15.2591 16.0301 12.0604 17.2684 10.467C18.9077 8.35748 18.6497 5.35656 16.5263 3.59168C14.4029 1.8268 11.6604 2.332 9.99425 4.27985Z" fill="black"/>
<path d="M12.9166 9.58333H12.0833L10.8333 12.0833L9.16663 7.08333L7.91663 9.58333H7.08329M9.99425 4.27985C8.32813 2.332 5.54975 1.80804 3.4622 3.59168C1.37466 5.37532 1.08077 8.35748 2.72012 10.467C3.95837 12.0604 7.47604 15.2591 9.1233 16.7291C9.42611 16.9993 9.57752 17.1344 9.75482 17.1876C9.90873 17.2338 10.0798 17.2338 10.2337 17.1876C10.411 17.1344 10.5624 16.9993 10.8652 16.7291C12.5125 15.2591 16.0301 12.0604 17.2684 10.467C18.9077 8.35748 18.6497 5.35656 16.5263 3.59168C14.4029 1.8268 11.6604 2.332 9.99425 4.27985Z" stroke="black" stroke-width="2" stroke-linecap="round" stroke-linejoin="round"/>
</svg>
