<svg width="20" height="20" viewBox="0 0 20 20" fill="none" xmlns="http://www.w3.org/2000/svg">
<g clip-path="url(#clip0_1_1072)">
<path opacity="0.12" d="M1.66663 10.0002C1.66663 14.6026 5.39759 18.3335 9.99996 18.3335C14.3211 18.3335 17.874 15.0446 18.2921 10.8335L9.16663 1.70801C4.95552 2.12611 1.66663 5.67907 1.66663 10.0002Z" fill="black"/>
<path d="M12.9166 2.9165V1.6665M16.1994 3.80039L17.0833 2.9165M17.0918 7.08317H18.3418M18.2921 10.8332C17.874 15.0443 14.3211 18.3332 9.99996 18.3332C5.39759 18.3332 1.66663 14.6022 1.66663 9.99984C1.66663 5.67871 4.95552 2.12575 9.16663 1.70765M9.99996 6.6665H13.3333V9.99984M13.0164 6.6665C11.0544 9.4395 7.82193 11.2498 4.16663 11.2498C3.33087 11.2498 2.51722 11.1552 1.73581 10.9761" stroke="black" stroke-width="2" stroke-linecap="round" stroke-linejoin="round"/>
</g>
<defs>
<clipPath id="clip0_1_1072">
<rect width="20" height="20" fill="white"/>
</clipPath>
</defs>
</svg>
