<svg width="20" height="20" viewBox="0 0 20 20" fill="none" xmlns="http://www.w3.org/2000/svg">
<g clip-path="url(#clip0_1_1056)">
<path opacity="0.12" d="M11.3166 11.4914C10.8971 11.6056 10.4557 11.6665 10.0001 11.6665C7.88907 11.6665 6.08361 10.3583 5.35023 8.5083C3.22753 9.08614 1.66675 11.0274 1.66675 13.3332C1.66675 16.0946 3.90532 18.3332 6.66675 18.3332C9.42817 18.3332 11.6667 16.0946 11.6667 13.3332C11.6667 12.6828 11.5426 12.0613 11.3166 11.4914Z" fill="black"/>
<path d="M10.0001 17.06C10.8847 17.8518 12.0528 18.3332 13.3334 18.3332C16.0948 18.3332 18.3334 16.0946 18.3334 13.3332C18.3334 11.0274 16.7726 9.08616 14.6499 8.50832M5.35023 8.50831C3.22753 9.08615 1.66675 11.0274 1.66675 13.3332C1.66675 16.0946 3.90532 18.3332 6.66675 18.3332C9.42817 18.3332 11.6667 16.0946 11.6667 13.3332C11.6667 12.6828 11.5426 12.0614 11.3166 11.4914M15.0001 6.6665C15.0001 9.42793 12.7615 11.6665 10.0001 11.6665C7.23866 11.6665 5.00008 9.42793 5.00008 6.6665C5.00008 3.90508 7.23866 1.6665 10.0001 1.6665C12.7615 1.6665 15.0001 3.90508 15.0001 6.6665Z" stroke="black" stroke-width="2" stroke-linecap="round" stroke-linejoin="round"/>
</g>
<defs>
<clipPath id="clip0_1_1056">
<rect width="20" height="20" fill="white"/>
</clipPath>
</defs>
</svg>
