<svg width="20" height="20" viewBox="0 0 20 20" fill="none" xmlns="http://www.w3.org/2000/svg">
<path opacity="0.12" d="M17.5 9.33333V2.5H2.5V9.33333C2.5 10.7335 2.5 11.4335 2.77248 11.9683C3.01217 12.4387 3.39462 12.8212 3.86502 13.0608C4.3998 13.3333 5.09987 13.3333 6.5 13.3333H13.5C14.9001 13.3333 15.6002 13.3333 16.135 13.0608C16.6054 12.8212 16.9878 12.4387 17.2275 11.9683C17.5 11.4335 17.5 10.7335 17.5 9.33333Z" fill="black"/>
<path d="M9.99996 13.3333V17.5M15 17.5L11.7071 14.756C11.0998 14.2499 10.7961 13.9968 10.4572 13.9001C10.1583 13.8149 9.84159 13.8149 9.54274 13.9001C9.20377 13.9968 8.90012 14.2499 8.2928 14.756L4.99996 17.5M6.66663 9.16667V10M9.99996 7.5V10M13.3333 5.83333V10M18.3333 2.5H1.66663M2.49996 2.5H17.5V9.33333C17.5 10.7335 17.5 11.4335 17.2275 11.9683C16.9878 12.4387 16.6053 12.8212 16.1349 13.0608C15.6002 13.3333 14.9001 13.3333 13.5 13.3333H6.49996C5.09983 13.3333 4.39976 13.3333 3.86498 13.0608C3.39458 12.8212 3.01213 12.4387 2.77244 11.9683C2.49996 11.4335 2.49996 10.7335 2.49996 9.33333V2.5Z" stroke="black" stroke-width="2" stroke-linecap="round" stroke-linejoin="round"/>
</svg>
