<svg width="20" height="20" viewBox="0 0 20 20" fill="none" xmlns="http://www.w3.org/2000/svg">
<path opacity="0.12" d="M9.41838 18.0127C9.60287 18.1203 9.69512 18.1741 9.82531 18.2021C9.92634 18.2237 10.0737 18.2237 10.1748 18.2021C10.305 18.1741 10.3972 18.1203 10.5817 18.0127C12.2051 17.0656 16.6667 14.0907 16.6667 10.0003V6.01497C16.6667 5.34871 16.6667 5.01558 16.5577 4.72922C16.4615 4.47625 16.3051 4.25053 16.102 4.07157C15.8721 3.869 15.5602 3.75203 14.9364 3.51809L10.4682 1.84253C10.295 1.77756 10.2083 1.74508 10.1192 1.7322C10.0402 1.72078 9.9599 1.72078 9.88086 1.7322C9.79175 1.74508 9.70512 1.77756 9.53188 1.84253L5.06371 3.51809C4.43987 3.75203 4.12795 3.869 3.89809 4.07157C3.69503 4.25053 3.5386 4.47625 3.44234 4.72922C3.33337 5.01558 3.33337 5.34871 3.33337 6.01497V10.0003C3.33337 14.0907 7.79501 17.0656 9.41838 18.0127Z" fill="black"/>
<path d="M7.67751 12.0831C7.93768 12.5786 8.45718 12.9165 9.0556 12.9165H10.8334C11.7538 12.9165 12.5 12.1703 12.5 11.2498C12.5 10.3293 11.7538 9.58314 10.8334 9.58314H9.16671C8.24623 9.58314 7.50004 8.83695 7.50004 7.91648C7.50004 6.996 8.24623 6.24981 9.16671 6.24981H10.9445C11.5429 6.24981 12.0624 6.58772 12.3226 7.08314M10 4.99981V6.24981M10 12.9165V14.1665M16.6667 9.99981C16.6667 14.0902 12.2051 17.0651 10.5817 18.0122C10.3972 18.1198 10.305 18.1737 10.1748 18.2016C10.0737 18.2232 9.92634 18.2232 9.82531 18.2016C9.69512 18.1737 9.60287 18.1198 9.41838 18.0122C7.79501 17.0651 3.33337 14.0902 3.33337 9.99981V6.01448C3.33337 5.34822 3.33337 5.01509 3.44234 4.72873C3.5386 4.47576 3.69503 4.25004 3.89809 4.07109C4.12795 3.86851 4.43987 3.75154 5.06371 3.5176L9.53188 1.84204C9.70512 1.77707 9.79175 1.74459 9.88086 1.73171C9.9599 1.72029 10.0402 1.72029 10.1192 1.73171C10.2083 1.74459 10.295 1.77707 10.4682 1.84204L14.9364 3.5176C15.5602 3.75154 15.8721 3.86851 16.102 4.07109C16.3051 4.25004 16.4615 4.47576 16.5577 4.72873C16.6667 5.01509 16.6667 5.34822 16.6667 6.01448V9.99981Z" stroke="black" stroke-width="2" stroke-linecap="round" stroke-linejoin="round"/>
</svg>
