<svg width="20" height="20" viewBox="0 0 20 20" fill="none" xmlns="http://www.w3.org/2000/svg">
<g clip-path="url(#clip0_1_1088)">
<g opacity="0.12">
<path d="M5.41663 1.6665L6.07034 2.97393C6.29158 3.41642 6.4022 3.63766 6.54998 3.82938C6.68112 3.9995 6.83363 4.15201 7.00375 4.28314C7.19547 4.43093 7.41671 4.54155 7.8592 4.76279L9.16663 5.4165L7.8592 6.07022C7.41671 6.29146 7.19547 6.40208 7.00375 6.54986C6.83363 6.681 6.68112 6.83351 6.54998 7.00363C6.4022 7.19535 6.29158 7.41659 6.07034 7.85907L5.41663 9.1665L4.76291 7.85907C4.54167 7.41659 4.43105 7.19535 4.28327 7.00363C4.15213 6.83351 3.99962 6.681 3.8295 6.54986C3.63778 6.40208 3.41654 6.29146 2.97406 6.07022L1.66663 5.4165L2.97406 4.76279C3.41654 4.54155 3.63778 4.43093 3.8295 4.28314C3.99962 4.15201 4.15213 3.9995 4.28327 3.82938C4.43105 3.63766 4.54167 3.41642 4.76291 2.97393L5.41663 1.6665Z" fill="black"/>
<path d="M14.1666 9.99984L14.9592 11.585C15.1805 12.0275 15.2911 12.2488 15.4389 12.4405C15.57 12.6106 15.7225 12.7631 15.8926 12.8943C16.0844 13.042 16.3056 13.1527 16.7481 13.3739L18.3333 14.1665L16.7481 14.9591C16.3056 15.1803 16.0844 15.291 15.8926 15.4388C15.7225 15.5699 15.57 15.7224 15.4389 15.8925C15.2911 16.0842 15.1805 16.3055 14.9592 16.748L14.1666 18.3332L13.374 16.748C13.1528 16.3055 13.0422 16.0842 12.8944 15.8925C12.7632 15.7224 12.6107 15.5699 12.4406 15.4388C12.2489 15.291 12.0276 15.1803 11.5852 14.9591L9.99996 14.1665L11.5852 13.3739C12.0276 13.1527 12.2489 13.042 12.4406 12.8943C12.6107 12.7631 12.7632 12.6106 12.8944 12.4405C13.0422 12.2488 13.1528 12.0275 13.374 11.585L14.1666 9.99984Z" fill="black"/>
</g>
<path d="M15.4166 6.6665V2.49984M4.58329 17.4998V13.3332M13.3333 4.58317H17.5M2.49996 15.4165H6.66663M5.41663 1.6665L4.76291 2.97393C4.54167 3.41642 4.43105 3.63766 4.28327 3.82938C4.15213 3.9995 3.99962 4.15201 3.8295 4.28314C3.63778 4.43093 3.41654 4.54155 2.97406 4.76279L1.66663 5.4165L2.97406 6.07022C3.41654 6.29146 3.63778 6.40208 3.8295 6.54986C3.99962 6.681 4.15213 6.83351 4.28327 7.00363C4.43105 7.19535 4.54167 7.41659 4.76291 7.85907L5.41663 9.1665L6.07034 7.85907C6.29158 7.41659 6.4022 7.19535 6.54998 7.00363C6.68112 6.83351 6.83363 6.681 7.00375 6.54986C7.19547 6.40208 7.41671 6.29146 7.8592 6.07022L9.16663 5.4165L7.8592 4.76279C7.41671 4.54155 7.19547 4.43093 7.00375 4.28314C6.83363 4.15201 6.68112 3.9995 6.54998 3.82938C6.4022 3.63766 6.29158 3.41642 6.07034 2.97393L5.41663 1.6665ZM14.1666 9.99984L13.374 11.585C13.1528 12.0275 13.0422 12.2488 12.8944 12.4405C12.7632 12.6106 12.6107 12.7631 12.4406 12.8943C12.2489 13.042 12.0277 13.1527 11.5852 13.3739L9.99996 14.1665L11.5852 14.9591C12.0276 15.1803 12.2489 15.291 12.4406 15.4388C12.6107 15.5699 12.7632 15.7224 12.8944 15.8925C13.0422 16.0842 13.1528 16.3055 13.374 16.748L14.1666 18.3332L14.9592 16.748C15.1805 16.3055 15.2911 16.0842 15.4389 15.8925C15.57 15.7224 15.7225 15.5699 15.8926 15.4388C16.0844 15.291 16.3056 15.1803 16.7481 14.9591L18.3333 14.1665L16.7481 13.3739C16.3056 13.1527 16.0844 13.042 15.8926 12.8943C15.7225 12.7631 15.57 12.6106 15.4389 12.4405C15.2911 12.2488 15.1805 12.0275 14.9592 11.585L14.1666 9.99984Z" stroke="black" stroke-width="2" stroke-linecap="round" stroke-linejoin="round"/>
</g>
<defs>
<clipPath id="clip0_1_1088">
<rect width="20" height="20" fill="white"/>
</clipPath>
</defs>
</svg>
